# xmcd
#
# Track frame offsets:
#	150
#	13095
#	26157
#	38370
#	53792
#	69467
#	82697
#	96902
#	108204
#	120347
#	133590
#	147945
#
# Disc length: 2140 seconds
#
# Revision: 1
# Processed by: cddbd v1.4PL0 Copyright (c) Steve Scherf et al.
# Submitted via: CDmax 1.9
#
DISCID=90085a0c
DTITLE=Javier Solis - El Gran Homenaje A Javier Solis
DYEAR=1999
DGENRE=Espanol
TTITLE0=Sombras
TTITLE1=En Mi Viejo San Juan
TTITLE2=Cataclismo
TTITLE3=Perfidia
TTITLE4=Tres Regalos
TTITLE5=Payaso
TTITLE6=Sabor A Mi
TTITLE7=Escandalo
TTITLE8=Cenizas
TTITLE9=El Mal Querido
TTITLE10=Cuando Ya No Me Quieras
TTITLE11=Tu Me Acostumbraste
EXTD=
EXTT0=
EXTT1=
EXTT2=
EXTT3=
EXTT4=
EXTT5=
EXTT6=
EXTT7=
EXTT8=
EXTT9=
EXTT10=
EXTT11=
PLAYORDER=
